PathFileType	4	(X/Y/Z)	 s03c0102.trc
DataRate	CameraRate	NumFrames	NumMarkers	Units	OrigDataRate	OrigDataStartFrame	OrigNumFrames
200	200	4	52	mm	200	501	2000
Frame#	Time	racr			lacr			c7			jug			rlel			rdr			llel			ldr			s2			lic			ric			lasi			rasi			rpsi			lpsi			rgt			lgt			rth1			rth2			rth3			rth4			rlfc			rmfc			rsh1			rsh2			rsh3			rsh4			rlmal			rmmal			rcal			rtoe			rmt5			rmt1			lth1			lth2			lth4			lth3			llfc			lmfc			lsh1			lsh2			lsh3			lsh4			llmal			lmmal			lcal			ltoe			lmt1			lmt5			SBIKE			LBIKE			RBIKE			
		X1	Y1	Z1	X2	Y2	Z2	X3	Y3	Z3	X4	Y4	Z4	X5	Y5	Z5	X6	Y6	Z6	X7	Y7	Z7	X8	Y8	Z8	X9	Y9	Z9	X10	Y10	Z10	X11	Y11	Z11	X12	Y12	Z12	X13	Y13	Z13	X14	Y14	Z14	X15	Y15	Z15	X16	Y16	Z16	X17	Y17	Z17	X18	Y18	Z18	X19	Y19	Z19	X20	Y20	Z20	X21	Y21	Z21	X22	Y22	Z22	X23	Y23	Z23	X24	Y24	Z24	X25	Y25	Z25	X26	Y26	Z26	X27	Y27	Z27	X28	Y28	Z28	X29	Y29	Z29	X30	Y30	Z30	X31	Y31	Z31	X32	Y32	Z32	X33	Y33	Z33	X34	Y34	Z34	X35	Y35	Z35	X36	Y36	Z36	X37	Y37	Z37	X38	Y38	Z38	X39	Y39	Z39	X40	Y40	Z40	X41	Y41	Z41	X42	Y42	Z42	X43	Y43	Z43	X44	Y44	Z44	X45	Y45	Z45	X46	Y46	Z46	X47	Y47	Z47	X48	Y48	Z48	X49	Y49	Z49	X50	Y50	Z50	X51	Y51	Z51	X52	Y52	Z52	
501	2.5050	504.758509	1413.513822	-84.013979	450.746318	1442.062456	-383.008006	399.971919	1508.805373	-218.464566	429.126403	1337.962036	-234.416628	548.709086	1150.749442	30.474776	750.492623	944.220138	-19.312319	541.681122	1185.268011	-441.608232	750.541464	953.691676	-411.955018	-101.880217	1209.399165	-196.617715	62.926505	1260.321349	-387.449194	67.342444	1228.386685	-15.691001	93.605784	1185.829497	-340.727054	95.307988	1163.957583	-60.400547	-76.222155	1255.703789	-148.055837	-71.417196	1262.321207	-231.223557	9.484989	1114.453111	-10.552045	34.889696	1164.966659	-404.317826	114.563832	989.471097	3.072905	194.397666	950.372235	4.849322	244.852959	880.836963	-1.459147	217.788696	977.385142	-4.439075	321.471646	776.193447	-29.267941	324.136191	765.551102	-152.523125	234.142576	632.516817	-13.187269	204.520802	551.546218	-35.166858	137.725659	493.983366	-40.894281	229.448387	539.422207	-61.292734	55.800352	396.413581	-70.685466	87.640397	394.538197	-150.580004	-13.679461	393.725483	-111.642630	223.871478	190.498248	-106.493002	120.386315	254.333303	-41.266122	154.444453	250.289979	-153.562905	157.843556	1070.999733	-425.134281	240.361968	1046.190128	-424.905233	259.238258	1075.808544	-414.043000	301.332464	980.586012	-423.133430	421.596548	912.872922	-403.354196	417.812892	897.116136	-275.700984	361.738184	751.455142	-430.270261	354.628451	667.567133	-412.256149	304.028681	591.905149	-410.581196	382.434810	659.155163	-385.363495	254.675807	473.099431	-397.633286	282.999670	488.365040	-300.429053	192.238529	412.588499	-351.661494	500.829645	453.135830	-353.254608	407.671122	435.942820	-307.418367	384.501139	417.653581	-426.437937	-211.224205	946.695504	-227.425045	-4.565588	83.955536	-432.758765	-8.874088	80.880882	-32.428170	
502	2.5100	505.579561	1413.336683	-84.177012	451.591563	1442.248275	-383.054170	401.042974	1508.828050	-218.630244	429.978482	1337.921931	-234.543843	548.813662	1150.802980	30.774874	750.397069	944.029004	-19.304309	541.668485	1185.123086	-441.977783	750.522732	953.492977	-411.848268	-100.941233	1210.112534	-198.224998	64.365579	1260.304908	-388.151409	67.600830	1229.050795	-16.425125	94.780479	1185.812536	-341.467704	95.642726	1164.496236	-60.806280	-75.703780	1256.466629	-149.211347	-70.380978	1262.865190	-232.391842	9.559548	1115.926392	-11.094600	36.086373	1164.455287	-404.854692	115.195009	991.502461	2.755834	195.268491	952.991099	4.632543	246.111575	883.626463	-1.106134	218.409432	980.048294	-4.894153	323.292204	778.845378	-28.174303	325.929934	767.924369	-151.560422	234.859776	635.595568	-12.501687	204.438260	555.026585	-34.697852	137.079839	498.378076	-40.569799	229.179359	542.841884	-60.894316	53.750617	401.621149	-70.436965	85.746913	399.669325	-150.394796	-15.780048	399.052161	-111.543671	221.144166	195.192152	-106.525852	117.868077	259.181946	-41.325448	151.956680	255.156308	-153.523637	158.425138	1069.429457	-425.288090	240.707210	1043.894914	-424.821279	259.924554	1073.302139	-413.698548	301.121956	977.821118	-422.742523	420.992542	908.918496	-402.135860	416.858399	893.710532	-275.003481	362.230013	747.065082	-430.002887	355.846845	662.877336	-411.635982	305.974079	587.098006	-410.672145	383.727175	655.012355	-385.170696	257.439030	467.913678	-398.256257	285.244940	482.958806	-300.862712	194.917283	407.486758	-352.462937	503.416004	448.203936	-352.883972	410.140830	430.920789	-307.425690	387.481750	412.607813	-426.488743	-211.189135	946.716326	-227.460161	-4.550479	83.966057	-432.786148	-8.858839	80.879185	-32.421758	
503	2.5150	506.461190	1413.111784	-84.253742	452.516200	1442.371674	-383.195582	402.121610	1508.751861	-218.923697	430.955291	1337.794222	-234.704735	549.461667	1150.564311	31.199603	750.327993	943.773737	-19.307805	541.665759	1184.909919	-442.459393	750.540282	953.286734	-411.806247	-100.075941	1210.742831	-199.848352	65.748793	1260.297858	-388.865625	67.913851	1229.647376	-17.076607	95.693430	1185.602415	-341.886075	96.058468	1165.187191	-61.233924	-75.252194	1257.307542	-150.369557	-69.463261	1263.400229	-233.537076	9.755510	1117.326815	-11.658960	37.242778	1163.860906	-405.479642	115.838752	993.567164	2.426547	196.156830	955.523184	4.466635	247.390255	886.403030	-0.703123	219.174541	982.662261	-5.287431	325.207369	781.618333	-27.049448	327.871495	770.318894	-150.573680	235.690484	638.873660	-11.744064	204.625491	558.591601	-33.828195	136.307316	502.659409	-40.137075	228.919295	546.218122	-60.394083	51.784971	406.779165	-70.264371	84.135099	404.881355	-150.133625	-17.631179	404.671077	-111.564198	218.601597	199.831129	-106.482725	115.510325	264.209924	-41.345807	149.552651	260.204857	-153.684354	158.970900	1067.736213	-425.496219	241.000158	1041.459636	-424.799820	260.301687	1070.826171	-413.934649	300.847513	974.899147	-422.423674	420.076842	905.070132	-401.440178	415.765039	890.207440	-274.515208	362.682659	742.737163	-429.807801	356.980782	658.748996	-412.090355	307.799140	582.111385	-410.876132	384.859142	650.712768	-385.046196	260.027943	462.700006	-398.918149	287.240028	477.960861	-301.396830	197.409274	402.225959	-353.424485	505.894880	443.106484	-352.467084	412.440871	425.845720	-307.413396	390.343600	407.564822	-426.516201	-211.144480	946.744172	-227.519889	-4.547170	83.975769	-432.799057	-8.863535	80.878430	-32.425355	
504	2.5200	507.269401	1412.736929	-84.436989	453.354553	1442.413747	-383.466580	403.132837	1508.676688	-219.149096	431.722657	1337.656835	-234.938879	550.117803	1150.516934	31.811276	750.309298	943.532271	-19.264861	541.701634	1184.560688	-443.004210	750.510316	953.085105	-411.639577	-99.357822	1211.225055	-201.336331	67.039037	1260.258206	-389.646639	68.153095	1230.314055	-17.725727	96.583075	1185.206951	-342.242696	96.450353	1165.900305	-61.745992	-74.663628	1258.044001	-151.585775	-68.536433	1263.828804	-234.762111	9.996355	1118.762334	-12.198529	38.238211	1163.140572	-406.055773	116.556410	995.630682	2.133140	197.091348	958.145809	4.309915	248.723709	889.263020	-0.251879	219.954739	985.287501	-5.698053	327.215606	784.430575	-25.909963	329.987398	772.659893	-149.536920	236.599731	642.195892	-10.967327	204.596500	562.325457	-33.223971	135.662886	507.063749	-39.690991	228.813773	549.729122	-59.812614	50.175531	412.147971	-69.943359	82.695146	410.059953	-149.821895	-19.334138	410.218810	-111.482781	216.200166	204.634144	-106.420487	113.418454	269.284734	-41.393140	147.539333	265.231162	-153.512452	159.364876	1065.974031	-425.661914	241.270710	1038.916978	-424.761590	260.809424	1068.121504	-413.971333	300.461432	971.800619	-422.002914	418.982140	901.107557	-400.833103	414.806607	885.262532	-274.685912	363.039628	738.268098	-429.614428	357.948679	654.350240	-412.186763	309.346390	577.198127	-411.282590	385.897159	646.366617	-384.837077	262.398277	457.643469	-399.922519	287.297363	471.505863	-303.243039	199.705071	396.842360	-354.594646	508.505830	438.104717	-351.608267	414.535934	420.676940	-307.462160	393.250872	401.762839	-425.435583	-211.111793	946.749879	-227.568976	-4.533122	83.980805	-432.802933	-8.851835	80.886638	-32.430296	
